<svg width="33" height="32" viewBox="0 0 33 32" fill="none" xmlns="http://www.w3.org/2000/svg">
<path d="M27.6628 13.4884C27.2051 13.4884 26.8256 13.1088 26.8256 12.6512V10.4186C26.8256 7.5386 24.9614 5.67442 22.0814 5.67442H10.9186C8.0386 5.67442 6.17442 7.5386 6.17442 10.4186V12.6512C6.17442 13.1088 5.79488 13.4884 5.33721 13.4884C4.87953 13.4884 4.5 13.1088 4.5 12.6512V10.4186C4.5 6.5786 7.0786 4 10.9186 4H22.0814C25.9214 4 28.5 6.5786 28.5 10.4186V12.6512C28.5 13.1088 28.1205 13.4884 27.6628 13.4884Z" fill="black"/>
<path d="M22.0814 28H10.9186C7.0786 28 4.5 25.4214 4.5 21.5814V19.3488C4.5 18.8911 4.87953 18.5116 5.33721 18.5116C5.79488 18.5116 6.17442 18.8911 6.17442 19.3488V21.5814C6.17442 24.4614 8.0386 26.3255 10.9186 26.3255H22.0814C24.9614 26.3255 26.8256 24.4614 26.8256 21.5814V19.3488C26.8256 18.8911 27.2051 18.5116 27.6628 18.5116C28.1205 18.5116 28.5 18.8911 28.5 19.3488V21.5814C28.5 25.4214 25.9214 28 22.0814 28Z" fill="black"/>
<path d="M27.6628 16.8372H5.33721C4.87953 16.8372 4.5 16.4577 4.5 16C4.5 15.5423 4.87953 15.1628 5.33721 15.1628H27.6628C28.1205 15.1628 28.5 15.5423 28.5 16C28.5 16.4577 28.1205 16.8372 27.6628 16.8372Z" fill="black"/>
</svg>
