<svg width="32" height="32" viewBox="0 0 32 32" fill="none" xmlns="http://www.w3.org/2000/svg">
<path d="M16 29.0743C15.1762 29.0743 14.3401 28.8899 13.6885 28.5087L6.92623 24.6112C4.17213 22.7546 4 22.4719 4 19.5579V12.4514C4 9.53741 4.15984 9.25462 6.86476 7.42265L13.6762 3.48822C14.9672 2.73822 16.9959 2.73822 18.2869 3.48822L25.0738 7.39806C27.8279 9.25462 28 9.53741 28 12.4514V19.5456C28 22.4596 27.8402 22.7423 25.1352 24.5743L18.3238 28.5087C17.6598 28.8899 16.8238 29.0743 16 29.0743ZM16 4.77921C15.4836 4.77921 14.9795 4.87757 14.6229 5.08658L7.86066 8.99643C5.85656 10.3489 5.85656 10.3489 5.85656 12.4514V19.5456C5.85656 21.6481 5.85656 21.6481 7.90984 23.0374L14.6229 26.9104C15.3483 27.3284 16.6639 27.3284 17.3893 26.9104L24.1516 23.0005C26.1434 21.6481 26.1434 21.6481 26.1434 19.5456V12.4514C26.1434 10.3489 26.1434 10.3489 24.0902 8.95954L17.377 5.08658C17.0205 4.87757 16.5164 4.77921 16 4.77921Z" fill="black"/>
<path d="M15.9998 20.6156C13.4547 20.6156 11.3891 18.55 11.3891 16.0049C11.3891 13.4598 13.4547 11.3942 15.9998 11.3942C18.5448 11.3942 20.6104 13.4598 20.6104 16.0049C20.6104 18.55 18.5448 20.6156 15.9998 20.6156ZM15.9998 13.2385C14.4752 13.2385 13.2334 14.4803 13.2334 16.0049C13.2334 17.5295 14.4752 18.7713 15.9998 18.7713C17.5244 18.7713 18.7662 17.5295 18.7662 16.0049C18.7662 14.4803 17.5244 13.2385 15.9998 13.2385Z" fill="black"/>
</svg>
