<svg width="33" height="32" viewBox="0 0 33 32" fill="none" xmlns="http://www.w3.org/2000/svg">
<path d="M23.2237 11.4225C23.1902 11.4225 23.1678 11.4225 23.1343 11.4225H23.0784C20.9657 11.3555 19.3896 9.72345 19.3896 7.71139C19.3896 5.65462 21.0663 3.98907 23.1119 3.98907C25.1575 3.98907 26.8342 5.66579 26.8342 7.71139C26.823 9.73463 25.2469 11.3666 23.2349 11.4337C23.2349 11.4225 23.2349 11.4225 23.2237 11.4225ZM23.1119 5.65463C21.9829 5.65463 21.0663 6.57123 21.0663 7.70022C21.0663 8.80686 21.927 9.70111 23.0337 9.74582C23.0448 9.73464 23.1343 9.73464 23.2349 9.74582C24.3191 9.68993 25.1575 8.79568 25.1687 7.70022C25.1687 6.57123 24.2521 5.65463 23.1119 5.65463Z" fill="black"/>
<path d="M23.2351 19.6609C22.7992 19.6609 22.3632 19.6274 21.9273 19.5491C21.469 19.4709 21.1671 19.0349 21.2454 18.5766C21.3236 18.1183 21.7596 17.8165 22.2179 17.8948C23.5928 18.1295 25.046 17.8725 26.0185 17.2242C26.5438 16.8777 26.8233 16.4416 26.8233 16.0057C26.8233 15.5697 26.5327 15.1449 26.0185 14.7984C25.046 14.1501 23.5704 13.893 22.1844 14.1389C21.7261 14.2283 21.2901 13.9153 21.2119 13.4571C21.1336 12.9988 21.4354 12.5629 21.8937 12.4846C23.7158 12.1604 25.6049 12.5069 26.9462 13.4012C27.9299 14.0607 28.5 14.9996 28.5 16.0057C28.5 17.0005 27.9411 17.9508 26.9462 18.6215C25.929 19.2921 24.61 19.6609 23.2351 19.6609Z" fill="black"/>
<path d="M9.77662 11.4225C9.76544 11.4225 9.75426 11.4225 9.75426 11.4225C7.7422 11.3555 6.16609 9.72346 6.15491 7.7114C6.15491 5.65462 7.83163 3.97791 9.87722 3.97791C11.9228 3.97791 13.5995 5.65462 13.5995 7.70022C13.5995 9.72346 12.0234 11.3555 10.0114 11.4225L9.77662 10.5842L9.85487 11.4225C9.83251 11.4225 9.79898 11.4225 9.77662 11.4225ZM9.8884 9.74582C9.95547 9.74582 10.0114 9.74582 10.0784 9.757C11.0733 9.71228 11.9452 8.81803 11.9452 7.7114C11.9452 6.58241 11.0286 5.66579 9.89958 5.66579C8.77059 5.66579 7.85398 6.58241 7.85398 7.7114C7.85398 8.80686 8.70352 9.68993 9.7878 9.757C9.79898 9.74582 9.84369 9.74582 9.8884 9.74582Z" fill="black"/>
<path d="M9.7649 19.6609C8.38999 19.6609 7.07097 19.2921 6.05376 18.6215C5.07008 17.9619 4.5 17.0117 4.5 16.0057C4.5 15.0108 5.07008 14.0607 6.05376 13.4012C7.39514 12.5069 9.28424 12.1604 11.1063 12.4846C11.5646 12.5629 11.8664 12.9988 11.7881 13.4571C11.7099 13.9153 11.2739 14.2283 10.8156 14.1389C9.42955 13.893 7.96522 14.1501 6.98154 14.7984C6.45617 15.1449 6.17672 15.5697 6.17672 16.0057C6.17672 16.4416 6.46735 16.8777 6.98154 17.2242C7.95404 17.8725 9.4072 18.1295 10.7821 17.8948C11.2404 17.8165 11.6764 18.1295 11.7546 18.5766C11.8329 19.0349 11.531 19.4709 11.0727 19.5491C10.6368 19.6274 10.2008 19.6609 9.7649 19.6609Z" fill="black"/>
<path d="M16.5168 19.7726C16.4833 19.7726 16.4609 19.7726 16.4274 19.7726H16.3715C14.2589 19.7055 12.6827 18.0735 12.6827 16.0615C12.6827 14.0047 14.3594 12.3391 16.405 12.3391C18.4506 12.3391 20.1274 14.0159 20.1274 16.0615C20.1162 18.0847 18.5401 19.7167 16.528 19.7838C16.528 19.7726 16.528 19.7726 16.5168 19.7726ZM16.405 14.0047C15.2761 14.0047 14.3594 14.9213 14.3594 16.0503C14.3594 17.1569 15.2202 18.0512 16.3268 18.0959C16.338 18.0847 16.4274 18.0847 16.528 18.0959C17.6123 18.04 18.4506 17.1457 18.4618 16.0503C18.4618 14.9325 17.5452 14.0047 16.405 14.0047Z" fill="black"/>
<path d="M16.5157 28.022C15.1743 28.022 13.8329 27.6755 12.7934 26.9712C11.8097 26.3117 11.2396 25.3728 11.2396 24.3667C11.2396 23.3719 11.7985 22.4106 12.7934 21.7511C14.8837 20.365 18.1589 20.365 20.238 21.7511C21.2217 22.4106 21.7918 23.3495 21.7918 24.3556C21.7918 25.3504 21.2329 26.3117 20.238 26.9712C19.1984 27.6643 17.8571 28.022 16.5157 28.022ZM13.7212 23.1595C13.1958 23.506 12.9163 23.942 12.9163 24.3779C12.9163 24.8139 13.207 25.2386 13.7212 25.5852C15.2302 26.6024 17.79 26.6024 19.2991 25.5852C19.8244 25.2386 20.1039 24.8027 20.1039 24.3667C20.1039 23.9308 19.8132 23.506 19.2991 23.1595C17.8012 22.1423 15.2414 22.1535 13.7212 23.1595Z" fill="black"/>
</svg>
